<svg xmlns="http://www.w3.org/2000/svg" version="1.1" xmlns:xlink="http://www.w3.org/1999/xlink" xmlns:svgjs="http://svgjs.dev/svgjs" width="800px" height="800px"><svg fill="#000000" height="800px" width="800px" version="1.1" id="SvgjsSvg1017" xmlns="http://www.w3.org/2000/svg" xmlns:xlink="http://www.w3.org/1999/xlink" viewBox="0 0 293.246 293.246" xml:space="preserve">
<g>
	<path d="M77.916,89.562c-19.922,0-37.482,10.27-47.692,25.785H6c-3.313,0-6,2.687-6,6s2.687,6,6,6h18.213
		c-2.169,6.025-3.359,12.514-3.359,19.276c0,31.464,25.598,57.062,57.062,57.062s57.062-25.598,57.062-57.062
		S109.38,89.562,77.916,89.562z M77.916,191.685c-24.847,0-45.062-20.215-45.062-45.062s20.215-45.062,45.062-45.062
		s45.062,20.215,45.062,45.062S102.763,191.685,77.916,191.685z"></path>
	<path d="M287.246,115.347h-27.05c-2.896-4.414-6.402-8.447-10.46-11.947c-10.345-8.924-23.575-13.838-37.253-13.838
		c-20.432,0-38.381,10.801-48.462,26.986c-4.376-5.595-11.183-9.202-18.821-9.202c-4.002,0-7.964,1.011-11.457,2.922
		c-2.907,1.591-3.974,5.237-2.383,8.145c1.59,2.906,5.236,3.972,8.144,2.383c1.757-0.962,3.673-1.449,5.696-1.449
		c6.556,0,11.89,5.334,11.89,11.89c0,0.408,0.042,0.807,0.119,1.193c-1.167,4.54-1.788,9.296-1.788,14.195
		c0,31.464,25.598,57.062,57.062,57.062c23.623,0,45.087-14.848,53.414-36.946c1.168-3.101-0.398-6.562-3.5-7.729
		c-3.1-1.17-6.562,0.397-7.73,3.499c-6.575,17.451-23.527,29.177-42.184,29.177c-24.847,0-45.062-20.215-45.062-45.062
		s20.215-45.062,45.062-45.062c22.328,0,41.048,15.979,44.512,37.995c0.515,3.273,3.584,5.508,6.86,4.994
		c3.273-0.515,5.509-3.586,4.995-6.859c-0.557-3.542-1.459-7.002-2.66-10.345h21.057c3.313,0,6-2.687,6-6
		S290.56,115.347,287.246,115.347z"></path>
</g>
</svg><style>@media (prefers-color-scheme: light) { :root { filter: none; } }
@media (prefers-color-scheme: dark) { :root { filter: none; } }
</style></svg>